<?xml version="1.0" standalone="no"?><!DOCTYPE svg PUBLIC "-//W3C//DTD SVG 1.1//EN" "http://www.w3.org/Graphics/SVG/1.1/DTD/svg11.dtd"><svg t="1758466688012" class="icon" viewBox="0 0 1024 1024" version="1.1" xmlns="http://www.w3.org/2000/svg" p-id="3029" xmlns:xlink="http://www.w3.org/1999/xlink" width="32" height="32"><path d="M548.3 891.3H474l4.6-110.7 1.1-25.8 2.4-57.4 1.2-28.8 6.7-160v-0.2l0.4-9.7 0.4-8.6 1.7-39.1v-0.1l4.2-100.5 2.9-68 4.3-101.2c0.2-4.7 3.4-7.3 6.9-7.9 0.5-0.1 0.9-0.1 1.4-0.1h0.5c4 0.1 7.9 2.8 8.2 8l3.1 81.7 0.9 23.2 4.1 104 2.1 53.3 0.3 6.9 1.9 47.9v0.2l0.1 2v0.3l5.5 139.7v0.1l2.5 65v0.2l6.9 185.6z" fill="#B05C25" p-id="3030"></path><path d="M250.4 900c-8.3 0-15.9-3.4-21.4-8.9s-8.9-13-8.9-21.4v-92.9c0-16.7 13.5-30.2 30.2-30.2 8.3 0 15.9 3.4 21.4 8.9s8.9 13 8.9 21.4v92.9c0.1 16.6-13.5 30.2-30.2 30.2z" fill="#90EB7A" p-id="3031"></path><path d="M740.8 900c-8.3 0-15.9-3.4-21.4-8.9s-8.9-13-8.9-21.4v-92.9c0-16.7 13.5-30.2 30.2-30.2 8.3 0 15.9 3.4 21.4 8.9s8.9 13 8.9 21.4v92.9c0 16.6-13.5 30.2-30.2 30.2z" fill="#008486" p-id="3032"></path><path d="M356.2 900c-8.3 0-15.9-3.4-21.4-8.9s-8.9-13-8.9-21.4v-58.6c0-16.7 13.5-30.2 30.2-30.2 8.3 0 15.9 3.4 21.4 8.9s8.9 13 8.9 21.4v58.7c0 16.5-13.5 30.1-30.2 30.1z" fill="#00AD95" p-id="3033"></path><path d="M548.3 891.3h-36.1V173.2h0.5c4 0.1 7.9 2.8 8.2 8l3.1 81.7 0.9 23.2 4.1 104 2.1 53.3 0.3 6.9 1.9 47.9v0.2l0.1 2v0.3l5.5 139.7v0.1l2.5 65v0.2l6.9 185.6z" fill="#8E4A1F" p-id="3034"></path><path d="M932 899.9c0 8.3-3.4 15.9-8.9 21.4s-13 8.9-21.4 8.9H122.2c-16.7 0-30.2-13.5-30.2-30.2 0-8.3 3.4-15.9 8.9-21.4s13-8.9 21.4-8.9h779.5c16.7 0 30.2 13.5 30.2 30.2z" fill="#00D16C" p-id="3035"></path><path d="M932 899.9c0 8.3-3.4 15.9-8.9 21.4s-13 8.9-21.4 8.9H510.6v-60.5h391.2c16.7 0 30.2 13.5 30.2 30.2z" fill="#00AD95" p-id="3036"></path><path d="M603.1 476.3c-5.2 0-10.2-2.7-13-7.4-19.5-33.3-26-77.2-18.8-127.1 5.3-36.9 16.1-64 16.6-65.2 3.1-7.7 11.8-11.4 19.5-8.3 7.7 3.1 11.4 11.8 8.3 19.5-0.4 1-38.9 99.1 0.2 165.9 4.2 7.1 1.8 16.3-5.4 20.5-2.2 1.4-4.8 2.1-7.4 2.1zM144.1 471.2c-4 0-7.9-1.6-10.8-4.6-5.7-6-5.5-15.5 0.5-21.2 41.1-39.2 99.2-60.4 168-61.2 51.2-0.6 90.2 10.1 91.8 10.6 8 2.2 12.6 10.5 10.4 18.5-2.2 8-10.5 12.6-18.5 10.4-0.6-0.2-37.3-10.1-84.2-9.5-27.2 0.4-52.6 4.2-75.3 11.4-27.9 8.8-52 22.8-71.5 41.5-3 2.7-6.7 4.1-10.4 4.1z" fill="#B05C25" p-id="3037"></path><path d="M507.8 206.3v30.9c-0.9 0.2-1.8 0.2-2.7 0.2-2.6 0-5.2-0.7-7.6-2.1-51.3-30.1-53.6-94.7-53.7-97.4-0.2-8.3 6.3-15.2 14.6-15.4 8.3-0.2 15.2 6.3 15.4 14.5 0 0.8 2 46.4 34 69.3zM388.3 237.7c-102.5 0-141-49.7-151.7-67.9-2.6-4.4-3.2-9.8-1.4-14.6 1.3-3.5 3.3-7.1 6.5-8.4 4.4-1.8 10.7 0.6 14.9 2.7 2.5 1.2 4.6 3.2 6.1 5.6 3.1 5.1 10.5 15.7 24.8 25.8 26.7 19.1 65.1 28.3 111.1 26.7 8.5-0.3 15.6 6.5 15.5 15.1 0 8.2-6.9 14.6-15 14.9-3.7 0-7.3 0.1-10.8 0.1z" fill="#B05C25" p-id="3038"></path><path d="M259.3 172.8c11.8 5.3 12 14.1 12 15.4v0.1c-22.5 25.7-46.3-2.4-49.3-12.4 0-0.1 0-0.1-0.1-0.2 13.9 6.6 24.7-8.5 37.4-2.9z" fill="#00D16C" p-id="3039"></path><path d="M259.3 172.8c11.8 5.3 12 14.1 12 15.4-7.7-4-11.8 1.5-24.8-0.2-9.6-1.3-21.9-9-24.5-12.1 0-0.1 0-0.1-0.1-0.2 13.9 6.6 24.7-8.5 37.4-2.9zM280.1 184.8c5.1 11.8 14 12.2 15.2 12.2h0.1c26-22.2-1.8-46.3-11.8-49.5-0.1 0-0.1 0-0.2-0.1 6.5 14-8.8 24.7-3.3 37.4z" fill="#90EB7A" p-id="3040"></path><path d="M280.1 184.8c5.1 11.8 14 12.2 15.2 12.2-3.9-7.7 1.7-11.8 0.1-24.8-1.2-9.6-8.7-22-11.8-24.7-0.1 0-0.1 0-0.2-0.1 6.5 14-8.8 24.7-3.3 37.4z" fill="#00D16C" p-id="3041"></path><path d="M233.5 153.6c5.1 11.8 14 12.2 15.2 12.2h0.1c26-22.2-1.8-46.3-11.8-49.5-0.1 0-0.1 0-0.2-0.1 6.5 14-8.8 24.6-3.3 37.4z" fill="#90EB7A" p-id="3042"></path><path d="M233.5 153.6c5.1 11.8 14 12.2 15.2 12.2-3.9-7.7 1.7-11.8 0.1-24.8-1.2-9.6-8.7-22-11.8-24.7-0.1 0-0.1 0-0.2-0.1 6.5 14-8.8 24.6-3.3 37.4zM301.3 207.2c12.7 2 15.3 10.5 15.6 11.7v0.1c-15 30.7-45.3 9.9-50.8 1 0-0.1-0.1-0.1-0.1-0.1 15.1 2.7 21.6-14.8 35.3-12.7z" fill="#00D16C" p-id="3043"></path><path d="M301.3 207.2c12.7 2 15.3 10.5 15.6 11.7-8.4-1.8-11 4.6-24 6.3-9.6 1.3-23.5-2.9-26.8-5.2 0-0.1-0.1-0.1-0.1-0.1 15.1 2.7 21.6-14.8 35.3-12.7z" fill="#90EB7A" p-id="3044"></path><path d="M350.9 222.1c12.1-4.5 18.5 1.6 19.3 2.5l0.1 0.1c2.1 34.1-34.6 30.9-43.8 25.9-0.1 0-0.1 0-0.2-0.1 14.6-5.1 11.7-23.5 24.6-28.4z" fill="#00D16C" p-id="3045"></path><path d="M350.9 222.1c12.1-4.5 18.5 1.6 19.3 2.5-8.2 2.6-7.3 9.4-17.8 17.3-7.7 5.8-21.9 9-25.9 8.7-0.1 0-0.1 0-0.2-0.1 14.6-5.1 11.7-23.5 24.6-28.4z" fill="#90EB7A" p-id="3046"></path><path d="M324.5 213.3c8 10.1 16.7 8.1 17.9 7.7h0.1c19.2-28.3-14-44.2-24.4-44.6h-0.2c9.9 11.8-2 26.1 6.6 36.9z" fill="#90EB7A" p-id="3047"></path><path d="M324.5 213.3c8 10.1 16.7 8.1 17.9 7.7-5.8-6.4-1.5-11.9-6.4-23.9-3.6-9-14.2-18.9-17.8-20.7h-0.2c9.8 11.8-2.1 26.1 6.5 36.9z" fill="#00D16C" p-id="3048"></path><path d="M507.8 312.6v29.2c-1.2 0.3-2.4 0.5-3.6 0.5-1.7 0-3.5-0.3-5.2-0.9-45.5-16.8-82-56.1-105.6-113.7-17.4-42.4-21.7-79.8-21.9-81.3-0.9-8.2 5-15.7 13.2-16.6 8.2-0.9 15.7 5 16.6 13.2 0.1 0.7 4.3 34.8 19.9 73 15.3 37.7 41.9 79.3 86.6 96.6z" fill="#B05C25" p-id="3049"></path><path d="M387.8 135.9c4.7 12-1.4 18.5-2.3 19.3l-0.1 0.1c-34.1 2.5-31.3-34.2-26.4-43.5 0-0.1 0-0.1 0.1-0.2 5.3 14.5 23.6 11.4 28.7 24.3z" fill="#00D16C" p-id="3050"></path><path d="M387.8 135.9c4.7 12-1.4 18.5-2.3 19.3-2.7-8.2-9.5-7.2-17.5-17.6-5.9-7.6-9.2-21.8-9-25.8 0-0.1 0-0.1 0.1-0.2 5.3 14.5 23.6 11.4 28.7 24.3zM394.1 159.1c-4.7 12 1.4 18.5 2.3 19.3l0.1 0.1c34.1 2.5 31.3-34.2 26.4-43.5 0-0.1 0-0.1-0.1-0.2-5.3 14.5-23.6 11.4-28.7 24.3z" fill="#90EB7A" p-id="3051"></path><path d="M394.1 159.1c-4.7 12 1.4 18.5 2.3 19.3 2.7-8.2 9.5-7.2 17.5-17.6 5.9-7.6 9.2-21.8 9-25.8 0-0.1 0-0.1-0.1-0.2-5.3 14.5-23.6 11.4-28.7 24.3zM393.5 189.9c7.7 10.3 3.5 18.2 2.9 19.3 0 0.1-0.1 0.1-0.1 0.1-32.2 11.3-39.2-24.8-36.9-35v-0.2c8.9 12.6 25.8 4.7 34.1 15.8z" fill="#00D16C" p-id="3052"></path><path d="M393.5 189.9c7.7 10.3 3.5 18.2 2.9 19.3-4.7-7.2-11.1-4.5-21.5-12.3-7.7-5.8-14.7-18.6-15.5-22.5v-0.2c8.9 12.5 25.8 4.6 34.1 15.7zM405.7 210.6c-1.3 12.8 6.2 17.5 7.3 18.1 0.1 0 0.1 0.1 0.1 0.1 33.5-6.6 21.1-41.3 14-48.9 0-0.1-0.1-0.1-0.1-0.1-1.3 15.2-19.8 17-21.3 30.8z" fill="#90EB7A" p-id="3053"></path><path d="M405.7 210.6c-1.3 12.8 6.2 17.5 7.3 18.1 0.4-8.6 7.3-9.5 12.3-21.5 3.7-8.9 3.2-23.4 1.9-27.3 0-0.1-0.1-0.1-0.1-0.1-1.4 15.2-19.9 17-21.4 30.8z" fill="#00D16C" p-id="3054"></path><path d="M415.9 241.9c8.4 9.7 4.9 17.9 4.3 19 0 0.1-0.1 0.1-0.1 0.1-31.3 13.7-40.9-21.8-39.4-32.1v-0.2c9.9 11.8 26.1 2.7 35.2 13.2z" fill="#00D16C" p-id="3055"></path><path d="M415.9 241.9c8.4 9.7 4.9 17.9 4.3 19-5.3-6.8-11.4-3.6-22.4-10.7-8.1-5.2-16-17.4-17.1-21.3v-0.2c9.9 11.8 26.1 2.7 35.2 13.2z" fill="#90EB7A" p-id="3056"></path><path d="M429.6 261.6c-0.4 12.9 7.5 17 8.6 17.5 0.1 0 0.1 0.1 0.1 0.1 32.9-9.1 18-42.7 10.3-49.8 0-0.1-0.1-0.1-0.1-0.1-0.1 15.2-18.4 18.4-18.9 32.3z" fill="#90EB7A" p-id="3057"></path><path d="M429.6 261.6c-0.4 12.9 7.5 17 8.6 17.5-0.2-8.6 6.5-10 10.6-22.4 3-9.2 1.4-23.6-0.2-27.3 0-0.1-0.1-0.1-0.1-0.1-0.1 15.2-18.4 18.4-18.9 32.3z" fill="#00D16C" p-id="3058"></path><path d="M442.6 286.8c12.1 4.4 13 13.2 13.1 14.4v0.1c-20.6 27.3-46.4 1-50.1-8.7 0-0.1 0-0.1-0.1-0.2 14.4 5.6 24.1-10.3 37.1-5.6z" fill="#00D16C" p-id="3059"></path><path d="M442.6 286.8c12.1 4.4 13 13.2 13.1 14.4-7.9-3.4-11.7 2.4-24.7 1.6-9.7-0.6-22.5-7.3-25.4-10.2 0-0.1 0-0.1-0.1-0.2 14.4 5.6 24.1-10.3 37.1-5.6z" fill="#90EB7A" p-id="3060"></path><path d="M464.3 297.2c6 11.4 14.8 11.1 16.1 11h0.1c24.3-24.1-5.2-46.1-15.4-48.5h-0.2c7.4 13.5-7.1 25.3-0.6 37.5z" fill="#90EB7A" p-id="3061"></path><path d="M464.3 297.2c6 11.4 14.8 11.1 16.1 11-4.4-7.4 0.8-11.9-1.7-24.7-1.9-9.5-10.3-21.3-13.6-23.7h-0.2c7.4 13.4-7.1 25.2-0.6 37.4z" fill="#00D16C" p-id="3062"></path><path d="M457.9 144.3c7.5 10.5 3.2 18.3 2.6 19.3 0 0.1-0.1 0.1-0.1 0.1-32.4 10.8-38.8-25.4-36.3-35.6v-0.2c8.8 12.7 25.8 5.1 33.8 16.4z" fill="#00D16C" p-id="3063"></path><path d="M457.9 144.3c7.5 10.5 3.2 18.3 2.6 19.3-4.6-7.3-11-4.7-21.3-12.7-7.6-5.9-14.4-18.8-15.1-22.8v-0.2c8.8 12.7 25.8 5.1 33.8 16.4zM469.9 165.1c-1.6 12.8 5.9 17.6 7 18.2 0.1 0 0.1 0.1 0.1 0.1 33.6-6.1 21.8-40.9 14.8-48.7 0-0.1-0.1-0.1-0.1-0.1-1.6 15.2-20.2 16.8-21.8 30.5z" fill="#90EB7A" p-id="3064"></path><path d="M469.9 165.1c-1.6 12.8 5.9 17.6 7 18.2 0.6-8.6 7.4-9.4 12.6-21.3 3.8-8.9 3.6-23.4 2.3-27.2 0-0.1-0.1-0.1-0.1-0.1-1.6 15.1-20.2 16.7-21.8 30.4z" fill="#00D16C" p-id="3065"></path><path d="M445.4 114.6c-1.6 12.8 5.9 17.6 7 18.2 0.1 0 0.1 0.1 0.1 0.1 33.6-6.1 21.8-40.9 14.8-48.7 0-0.1-0.1-0.1-0.1-0.1-1.6 15.3-20.1 16.8-21.8 30.5z" fill="#90EB7A" p-id="3066"></path><path d="M445.4 114.6c-1.6 12.8 5.9 17.6 7 18.2 0.6-8.6 7.4-9.4 12.6-21.3 3.8-8.9 3.6-23.4 2.3-27.2 0-0.1-0.1-0.1-0.1-0.1-1.6 15.2-20.1 16.7-21.8 30.4z" fill="#00D16C" p-id="3067"></path><path d="M476.9 195.2c10 8.1 7.9 16.8 7.6 17.9v0.1c-28.4 19-44.1-14.3-44.4-24.8v-0.2c11.6 10 26-1.8 36.8 7z" fill="#00D16C" p-id="3068"></path><path d="M476.9 195.2c10 8.1 7.9 16.8 7.6 17.9-6.4-5.8-11.8-1.6-23.9-6.6-8.9-3.7-18.8-14.4-20.6-18v-0.2c11.7 9.9 26.1-1.9 36.9 6.9z" fill="#90EB7A" p-id="3069"></path><path d="M493.8 212.2c1.9 12.7 10.3 15.4 11.5 15.7h0.1c30.8-14.7 10.2-45.2 1.4-50.8-0.1 0-0.1-0.1-0.1-0.1 2.6 15.1-14.9 21.5-12.9 35.2z" fill="#90EB7A" p-id="3070"></path><path d="M493.8 212.2c1.9 12.7 10.3 15.4 11.5 15.7-1.7-8.5 4.7-11 6.5-23.9 1.4-9.6-2.7-23.5-5-26.9-0.1 0-0.1-0.1-0.1-0.1 2.6 15.1-14.9 21.5-12.9 35.2z" fill="#00D16C" p-id="3071"></path><path d="M681.8 369.1c-4.2 0-8.4-1.8-11.4-5.2-5.4-6.3-4.7-15.7 1.5-21.1 1.1-1 27.9-23.9 70.6-36.6 39.6-11.8 100.9-16.7 168.4 26.6 7 4.5 9 13.8 4.5 20.7-4.5 7-13.8 9-20.7 4.5-46.1-29.6-94-37.5-142.5-23.4-36.8 10.7-60.4 30.7-60.6 30.9-2.9 2.4-6.4 3.6-9.8 3.6z" fill="#8E4A1F" p-id="3072"></path><path d="M910.4 358.6c-12.2-4.1-13.3-12.9-13.4-14.1v-0.1c19.9-27.8 46.3-2.1 50.3 7.5 0 0.1 0.1 0.1 0.1 0.2-14.5-5.2-23.8 10.9-37 6.5z" fill="#00AD95" p-id="3073"></path><path d="M910.4 358.6c-12.2-4.1-13.3-12.9-13.4-14.1 8 3.2 11.6-2.7 24.7-2.2 9.7 0.3 22.7 6.8 25.6 9.6 0 0.1 0.1 0.1 0.1 0.2-14.5-5.2-23.8 10.9-37 6.5zM888.5 348.7c-6.2-11.3-15.1-10.7-16.3-10.6h-0.1c-23.7 24.6 6.3 45.9 16.6 48.1h0.2c-7.8-13.2 6.3-25.4-0.4-37.5z" fill="#008486" p-id="3074"></path><path d="M888.5 348.7c-6.2-11.3-15.1-10.7-16.3-10.6 4.6 7.3-0.5 11.9 2.3 24.7 2.1 9.4 10.8 21 14.1 23.4h0.2c-7.7-13.2 6.4-25.4-0.3-37.5zM865.2 328.5c-12.9-0.7-16.2-8.9-16.7-10.1v-0.1c11.9-32 44.1-14.3 50.5-6 0 0.1 0.1 0.1 0.1 0.1-15.3-1.2-20 16.9-33.9 16.1z" fill="#00AD95" p-id="3075"></path><path d="M865.2 328.5c-12.9-0.7-16.2-8.9-16.7-10.1 8.6 1 10.5-5.7 23.2-8.7 9.4-2.2 23.6 0.6 27.2 2.5 0 0.1 0.1 0.1 0.1 0.1-15.2-1.1-19.9 17-33.8 16.2zM841.5 324.7c-9-9.2-17.4-6.4-18.5-6-0.1 0-0.1 0.1-0.1 0.1-16.4 30 18.2 42.6 28.6 42h0.2c-11-10.8-0.5-26.2-10.2-36.1z" fill="#008486" p-id="3076"></path><path d="M841.5 324.7c-9-9.2-17.4-6.4-18.5-6 6.4 5.8 2.6 11.6 8.7 23.2 4.5 8.6 16 17.4 19.8 18.9h0.2c-11-10.8-0.5-26.2-10.2-36.1z" fill="#00AD95" p-id="3077"></path><path d="M811 312.5c-12.9 0.2-16.9-7.7-17.4-8.8 0-0.1-0.1-0.1-0.1-0.1 9.4-32.8 42.9-17.5 49.9-9.8 0.1 0 0.1 0.1 0.1 0.1-15.3 0-18.7 18.4-32.5 18.6z" fill="#00AD95" p-id="3078"></path><path d="M811 312.5c-12.9 0.2-16.9-7.7-17.4-8.8 8.6 0.3 10.1-6.4 22.5-10.4 9.2-2.9 23.6-1.2 27.3 0.5 0.1 0 0.1 0.1 0.1 0.1-15.3 0-18.7 18.4-32.5 18.6z" fill="#008486" p-id="3079"></path><path d="M787 310.5c-9.7-8.5-17.8-5.1-18.9-4.5-0.1 0-0.1 0.1-0.1 0.1-14.1 31.1 21.4 41.2 31.7 39.7h0.2c-11.8-10-2.5-26.1-12.9-35.3z" fill="#008486" p-id="3080"></path><path d="M787 310.5c-9.7-8.5-17.8-5.1-18.9-4.5 6.8 5.3 3.5 11.4 10.4 22.5 5.1 8.2 17.2 16.2 21.1 17.3h0.2c-11.7-10-2.4-26.1-12.8-35.3z" fill="#00AD95" p-id="3081"></path><path d="M759.3 304.4c-11.1 6.5-18.5 1.6-19.5 0.8l-0.1-0.1c-7.8-33.3 28.8-36.3 38.7-33 0.1 0 0.1 0 0.2 0.1-13.3 7.5-7.3 25.1-19.3 32.2z" fill="#00AD95" p-id="3082"></path><path d="M759.3 304.4c-11.1 6.5-18.5 1.6-19.5 0.8 7.7-3.9 5.6-10.5 14.5-20.1 6.6-7.1 20-12.6 24.1-13 0.1 0 0.1 0 0.2 0.1-13.3 7.5-7.3 25.1-19.3 32.2z" fill="#008486" p-id="3083"></path><path d="M737.5 314.3c-12.6-2.7-18 4.3-18.7 5.3 0 0.1-0.1 0.1-0.1 0.1 3 34 38.8 25.4 47.1 19.1 0.1 0 0.1-0.1 0.1-0.1-15.1-2.8-14.9-21.5-28.4-24.4z" fill="#008486" p-id="3084"></path><path d="M737.5 314.3c-12.6-2.7-18 4.3-18.7 5.3 8.5 1.3 8.7 8.2 20.1 14.5 8.5 4.6 23 5.7 26.9 4.8 0.1 0 0.1-0.1 0.1-0.1-15.1-2.9-14.9-21.6-28.4-24.5z" fill="#00AD95" p-id="3085"></path><path d="M720.4 269.6c-0.1 0.7-1.1 6.8-3.5 17-1.3 5.6-3.1 12.3-5.4 20.1-0.9 3-1.8 6-2.8 9.3-2.5 7.8-5.4 16.4-8.9 25.5-2.5 6.5-5.2 13.2-8.2 20.2-1.2 2.7-2.4 5.5-3.7 8.3-0.9 2.1-1.9 4.1-2.9 6.2-3.2 6.7-6.6 13.3-10.1 19.8-2.8 5.2-5.7 10.4-8.8 15.4-1.8 3-3.5 5.9-5.3 8.8-5.5 8.7-11.2 17.1-17.2 25.2-3.8 5.1-7.7 10.1-11.7 15-1.8 2.2-3.7 4.4-5.5 6.6-0.2 0.3-0.4 0.5-0.7 0.8-28.4 32.8-61.6 59-98.6 78-1.7 0.8-3.4 1.3-5.2 1.5v-32.8c7.3-4.1 14.5-8.5 21.5-13.3 2.8-1.9 5.6-3.8 8.3-5.8 4.7-3.4 9.3-7 13.9-10.8 7.1-5.9 14.1-12.1 20.7-18.7 2.6-2.5 5.1-5.1 7.6-7.8 3.3-3.5 6.6-7.1 9.7-10.8 0.4-0.5 0.9-1 1.3-1.5 5.3-6.2 10.4-12.7 15.4-19.4 2-2.8 4.1-5.6 6.1-8.5 3.3-4.8 6.6-9.7 9.7-14.8 5.2-8.3 10.2-17 14.8-25.9 1.7-3.2 3.3-6.4 4.9-9.7 0.7-1.4 1.3-2.8 2-4.2 1.9-4 3.7-7.9 5.4-11.7 3.1-7.1 5.9-14 8.4-20.5 1.3-3.5 2.6-6.9 3.8-10.2 2.1-6 4-11.6 5.6-16.8 2.3-7.5 4.1-14.1 5.5-19.7 0.8-3.3 1.5-6.2 2.1-8.7 1.5-6.7 2.1-10.5 2.2-10.6 0.4-2.3 1.2-4.5 2.5-6.3 2.1-3.1 5.4-5.2 9-6.1 1.8-0.4 3.7-0.5 5.7-0.2 0.9 0.1 1.9 0.4 2.7 0.7 2.8 1 5.2 2.8 7 5.2 2.2 3 3.4 7 2.7 11.2z" fill="#8E4A1F" p-id="3086"></path><path d="M702.7 240.8c-3.6 12.4 3 18.3 4 19.1l0.1 0.1c34.2-0.6 28.1-36.9 22.4-45.7 0-0.1-0.1-0.1-0.1-0.1-4 14.8-22.6 13.3-26.4 26.6z" fill="#008486" p-id="3087"></path><path d="M702.7 240.8c-3.6 12.4 3 18.3 4 19.1 1.9-8.4 8.8-8.1 15.9-19.1 5.2-8.1 7.3-22.5 6.6-26.5 0-0.1-0.1-0.1-0.1-0.1-4 14.8-22.6 13.3-26.4 26.6z" fill="#00AD95" p-id="3088"></path><path d="M698.4 264.5c5.7 11.5 0.3 18.5-0.5 19.5l-0.1 0.1c-33.7 5.5-34.2-31.3-30.2-40.9 0-0.1 0-0.1 0.1-0.2 6.5 13.8 24.5 9.1 30.7 21.5z" fill="#008486" p-id="3089"></path><path d="M698.4 264.5c5.7 11.5 0.3 18.5-0.5 19.5-3.4-7.9-10.1-6.4-19-15.9-6.6-7.1-11.2-20.8-11.3-24.9 0-0.1 0-0.1 0.1-0.2 6.5 13.8 24.5 9.1 30.7 21.5z" fill="#00AD95" p-id="3090"></path><path d="M701.9 295.1c-6.7 11-1.9 18.4-1.2 19.4l0.1 0.1c33.1 8.4 36.8-28.2 33.6-38.2 0-0.1 0-0.1-0.1-0.2-7.7 13.4-25.2 7.1-32.4 18.9z" fill="#008486" p-id="3091"></path><path d="M701.9 295.1c-6.7 11-1.9 18.4-1.2 19.4 4.1-7.6 10.6-5.5 20.3-14.2 7.2-6.5 12.9-19.8 13.4-23.8 0-0.1 0-0.1-0.1-0.2-7.7 13.3-25.2 7-32.4 18.8z" fill="#00AD95" p-id="3092"></path><path d="M691.5 316.8c2.5 12.6-4.6 18-5.6 18.6-0.1 0-0.1 0.1-0.1 0.1-34-3.6-24.8-39.2-18.3-47.4 0-0.1 0.1-0.1 0.1-0.1 2.6 15.1 21.2 15.2 23.9 28.8z" fill="#008486" p-id="3093"></path><path d="M691.5 316.8c2.5 12.6-4.6 18-5.6 18.6-1.2-8.6-8.1-8.8-14.1-20.4-4.5-8.6-5.3-23.1-4.3-27 0-0.1 0.1-0.1 0.1-0.1 2.6 15.2 21.2 15.3 23.9 28.9z" fill="#00AD95" p-id="3094"></path><path d="M684.2 348.9c-7.5 10.5-3.3 18.2-2.6 19.3 0 0.1 0.1 0.1 0.1 0.1 32.4 10.9 38.8-25.4 36.4-35.5v-0.2c-8.8 12.6-25.8 5-33.9 16.3z" fill="#008486" p-id="3095"></path><path d="M684.2 348.9c-7.5 10.5-3.3 18.2-2.6 19.3 4.6-7.3 11-4.6 21.3-12.6 7.6-5.9 14.4-18.8 15.1-22.8v-0.2c-8.7 12.6-25.7 5-33.8 16.3z" fill="#00AD95" p-id="3096"></path><path d="M672.3 364.8c1.5 12.8-5.9 17.6-7 18.2-0.1 0-0.1 0.1-0.1 0.1-33.6-6.1-21.8-40.9-14.7-48.7 0-0.1 0.1-0.1 0.1-0.1 1.4 15.2 20 16.7 21.7 30.5z" fill="#008486" p-id="3097"></path><path d="M672.3 364.8c1.5 12.8-5.9 17.6-7 18.2-0.6-8.6-7.4-9.4-12.6-21.4-3.8-8.9-3.5-23.4-2.3-27.2 0-0.1 0.1-0.1 0.1-0.1 1.5 15.2 20.1 16.7 21.8 30.5z" fill="#00AD95" p-id="3098"></path><path d="M661.6 396c-11.7 5.4-11.8 14.3-11.7 15.5v0.1c22.9 25.3 46.3-3.1 49.1-13.2v-0.2c-13.7 6.9-24.8-8-37.4-2.2z" fill="#008486" p-id="3099"></path><path d="M661.6 396c-11.7 5.4-11.8 14.3-11.7 15.5 7.6-4.1 11.9 1.3 24.8-0.6 9.6-1.4 21.7-9.3 24.3-12.5v-0.2c-13.7 6.9-24.8-8-37.4-2.2z" fill="#00AD95" p-id="3100"></path><path d="M642.5 416.1c0.1 12.9-7.9 16.8-9 17.2-0.1 0-0.1 0.1-0.1 0.1-32.7-9.9-16.9-43.2-9-50l0.1-0.1c-0.3 15.3 17.9 18.9 18 32.8z" fill="#008486" p-id="3101"></path><path d="M642.5 416.1c0.1 12.9-7.9 16.8-9 17.2 0.4-8.6-6.3-10.2-10-22.7-2.8-9.3-0.8-23.6 0.9-27.3l0.1-0.1c-0.3 15.4 17.9 19 18 32.9z" fill="#00AD95" p-id="3102"></path><path d="M629.6 445.2c-11.7 5.4-11.8 14.3-11.7 15.5v0.1c22.9 25.3 46.3-3.1 49.1-13.2v-0.2c-13.7 6.9-24.8-8-37.4-2.2z" fill="#008486" p-id="3103"></path><path d="M629.6 445.2c-11.7 5.4-11.8 14.3-11.7 15.5 7.6-4.1 11.9 1.3 24.8-0.6 9.6-1.4 21.7-9.3 24.3-12.5v-0.2c-13.7 6.9-24.8-8-37.4-2.2z" fill="#00AD95" p-id="3104"></path><path d="M611.2 458.6c0.1 12.9-7.9 16.8-9 17.2-0.1 0-0.1 0.1-0.1 0.1-32.7-9.9-16.9-43.2-9-50l0.1-0.1c-0.4 15.3 17.9 18.9 18 32.8z" fill="#008486" p-id="3105"></path><path d="M611.2 458.6c0.1 12.9-7.9 16.8-9 17.2 0.4-8.6-6.3-10.2-10-22.7-2.8-9.3-0.8-23.6 0.9-27.3l0.1-0.1c-0.4 15.4 17.9 19 18 32.9z" fill="#00AD95" p-id="3106"></path><path d="M567.6 496.8c-3.1 12.5-11.8 14.3-13 14.5h-0.1c-29.3-17.7-5.8-46 3.5-50.7 0.1 0 0.1-0.1 0.2-0.1-4.1 14.9 12.7 22.9 9.4 36.3z" fill="#008486" p-id="3107"></path><path d="M567.6 496.8c-3.1 12.5-11.8 14.3-13 14.5 2.5-8.3-3.6-11.4-4.2-24.4-0.4-9.7 5-23.1 7.6-26.3 0.1 0 0.1-0.1 0.2-0.1-4.1 14.9 12.7 22.9 9.4 36.3z" fill="#00AD95" p-id="3108"></path><path d="M505.3 546.9v55.9c-0.3 0.1-0.6 0.2-1 0.2-1 0.3-2.1 0.4-3.1 0.4-6.9 0-13.2-4.8-14.7-11.9-8.4-39.6-24.7-77.8-48.2-113.6-19.9-30.2-45-58.7-74.6-84.6-51.9-45.4-105.9-72.7-129.5-79.9-7.9-2.4-12.4-10.8-10-18.7 2.4-7.9 10.8-12.4 18.7-10 22.5 6.9 80.8 33.7 140.5 86 31.6 27.7 58.5 58.2 79.9 90.6 17.9 27.4 32 56 42 85.6z" fill="#B05C25" p-id="3109"></path><path d="M220.3 300.2c11.5 5.8 18.5 0.4 19.5-0.4l0.1-0.1c5.8-33.7-31-34.5-40.7-30.5-0.1 0-0.1 0-0.2 0.1 13.8 6.6 8.9 24.6 21.3 30.9z" fill="#00D16C" p-id="3110"></path><path d="M220.3 300.2c11.5 5.8 18.5 0.4 19.5-0.4-7.9-3.5-6.3-10.2-15.8-19.1-7-6.6-20.8-11.3-24.8-11.5-0.1 0-0.1 0-0.2 0.1 13.8 6.6 8.9 24.6 21.3 30.9zM242.7 308.8c12.4-3.5 18.3 3.2 19 4.1l0.1 0.1c-0.9 34.2-37.1 27.8-45.8 22-0.1 0-0.1-0.1-0.1-0.1 14.8-3.8 13.5-22.4 26.8-26.1z" fill="#00AD95" p-id="3111"></path><path d="M242.7 308.8c12.4-3.5 18.3 3.2 19 4.1-8.4 1.9-8.1 8.7-19.2 15.7-8.2 5.2-22.6 7.1-26.6 6.4-0.1 0-0.1-0.1-0.1-0.1 14.9-3.8 13.6-22.4 26.9-26.1zM273.5 311.1c9.5 8.6 17.8 5.3 18.9 4.8 0.1 0 0.1-0.1 0.1-0.1 14.4-31-20.8-41.4-31.2-40.1h-0.2c11.6 10.1 2.1 26.1 12.4 35.4z" fill="#00D16C" p-id="3112"></path><path d="M273.5 311.1c9.5 8.6 17.8 5.3 18.9 4.8-6.7-5.4-3.4-11.5-10.2-22.6-5-8.3-17-16.4-20.9-17.6h-0.2c11.6 10.1 2.1 26.1 12.4 35.4zM292.8 325.4c12.9-0.1 16.8 7.9 17.3 9 0 0.1 0.1 0.1 0.1 0.1-9.9 32.7-43.1 17-50 9.1-0.1 0-0.1-0.1-0.1-0.1 15.3 0.2 18.9-18.1 32.7-18.1z" fill="#00AD95" p-id="3113"></path><path d="M292.8 325.4c12.9-0.1 16.8 7.9 17.3 9-8.6-0.4-10.1 6.3-22.6 10.1-9.3 2.8-23.6 0.9-27.3-0.8-0.1 0-0.1-0.1-0.1-0.1 15.3 0.1 18.9-18.2 32.7-18.2zM322.9 338.5c8.9 9.3 17.3 6.6 18.5 6.2 0.1 0 0.1-0.1 0.1-0.1 16.7-29.8-17.7-42.9-28.1-42.4h-0.2c10.9 11 0.2 26.3 9.7 36.3z" fill="#00D16C" p-id="3114"></path><path d="M322.9 338.5c8.9 9.3 17.3 6.6 18.5 6.2-6.3-5.9-2.5-11.7-8.4-23.3-4.4-8.6-15.8-17.6-19.5-19.1h-0.2c10.8 10.9 0.1 26.2 9.6 36.2zM341.2 354.2c12.8 0.9 16.1 9.1 16.5 10.3v0.1c-12.3 31.9-44.3 13.7-50.6 5.4 0-0.1-0.1-0.1-0.1-0.1 15.4 1.3 20.4-16.7 34.2-15.7z" fill="#00AD95" p-id="3115"></path><path d="M341.2 354.2c12.8 0.9 16.1 9.1 16.5 10.3-8.6-1.1-10.6 5.5-23.3 8.4-9.4 2.1-23.6-0.9-27.2-2.9 0-0.1-0.1-0.1-0.1-0.1 15.3 1.3 20.3-16.7 34.1-15.7zM365.1 369.5c3.2 12.5 11.9 14.2 13.1 14.4h0.1c29.2-17.8 5.6-46-3.8-50.7-0.1 0-0.1-0.1-0.2-0.1 4.1 14.9-12.6 23-9.2 36.4z" fill="#00D16C" p-id="3116"></path><path d="M365.1 369.5c3.2 12.5 11.9 14.2 13.1 14.4-2.6-8.2 3.5-11.4 4.1-24.5 0.4-9.7-5.1-23.1-7.7-26.2-0.1 0-0.1-0.1-0.2-0.1 4 14.9-12.7 23-9.3 36.4z" fill="#00AD95" p-id="3117"></path><path d="M373.3 392.1c10.8 7.1 9.6 15.9 9.4 17.1v0.1c-26.3 21.8-45.3-9.7-46.7-20.1v-0.2c12.6 8.7 25.7-4.5 37.3 3.1z" fill="#00AD95" p-id="3118"></path><path d="M373.3 392.1c10.8 7.1 9.6 15.9 9.4 17.1-6.9-5.1-11.9-0.4-24.4-4.1-9.3-2.8-20.2-12.4-22.3-15.8v-0.2c12.6 8.6 25.7-4.6 37.3 3z" fill="#00D16C" p-id="3119"></path><path d="M406.9 405.9c2.2 12.7 10.8 15.1 12 15.4h0.1c30.4-15.5 9-45.5 0.1-50.8-0.1 0-0.1-0.1-0.2-0.1 2.9 15.1-14.4 21.9-12 35.5z" fill="#00D16C" p-id="3120"></path><path d="M406.9 405.9c2.2 12.7 10.8 15.1 12 15.4-2-8.4 4.4-11.1 5.9-24.1 1.1-9.6-3.4-23.4-5.7-26.7-0.1 0-0.1-0.1-0.2-0.1 2.9 15.1-14.4 21.9-12 35.5z" fill="#00AD95" p-id="3121"></path><path d="M413.4 429.1c10.2 7.8 8.4 16.5 8.1 17.7v0.1c-27.9 19.7-44.5-13.1-45.1-23.5v-0.2c11.9 9.6 26-2.6 37 5.9z" fill="#00AD95" p-id="3122"></path><path d="M413.4 429.1c10.2 7.8 8.4 16.5 8.1 17.7-6.5-5.6-11.9-1.3-24.1-6-9-3.5-19.2-13.8-21-17.4v-0.2c11.9 9.6 26-2.6 37 5.9z" fill="#00D16C" p-id="3123"></path><path d="M441.6 447.2c1.9 12.7 10.4 15.4 11.6 15.7h0.1c30.8-14.8 10.2-45.2 1.4-50.8-0.1 0-0.1-0.1-0.1-0.1 2.4 15.1-15.1 21.5-13 35.2z" fill="#00D16C" p-id="3124"></path><path d="M441.6 447.2c1.9 12.7 10.4 15.4 11.6 15.7-1.7-8.5 4.7-11 6.5-23.9 1.4-9.6-2.8-23.5-5-26.9-0.1 0-0.1-0.1-0.1-0.1 2.4 15.1-15.1 21.5-13 35.2z" fill="#00AD95" p-id="3125"></path><path d="M447.5 470.4c10 8.1 8 16.7 7.6 17.9v0.1c-28.4 19-44.1-14.2-44.5-24.7v-0.2c11.7 10 26.1-1.8 36.9 6.9z" fill="#00AD95" p-id="3126"></path><path d="M447.5 470.4c10 8.1 8 16.7 7.6 17.9-6.4-5.8-11.8-1.6-23.9-6.6-8.9-3.7-18.8-14.3-20.6-18v-0.2c11.7 10 26.1-1.8 36.9 6.9z" fill="#00D16C" p-id="3127"></path><path d="M473.2 502.5c1.9 12.7 10.4 15.4 11.6 15.7h0.1c30.8-14.8 10.2-45.2 1.4-50.8-0.1 0-0.1-0.1-0.1-0.1 2.5 15.1-15 21.5-13 35.2z" fill="#00D16C" p-id="3128"></path><path d="M473.2 502.5c1.9 12.7 10.4 15.4 11.6 15.7-1.7-8.5 4.7-11 6.5-23.9 1.4-9.6-2.8-23.5-5-26.9-0.1 0-0.1-0.1-0.1-0.1 2.5 15.1-15 21.5-13 35.2z" fill="#00AD95" p-id="3129"></path><path d="M479.2 525.8c10 8.1 8 16.7 7.6 17.9v0.1c-28.4 19-44.1-14.2-44.5-24.7v-0.2c11.7 10 26.1-1.9 36.9 6.9z" fill="#00AD95" p-id="3130"></path><path d="M479.2 525.8c10 8.1 8 16.7 7.6 17.9-6.4-5.8-11.8-1.6-23.9-6.6-8.9-3.7-18.8-14.3-20.6-18v-0.2c11.7 10 26.1-1.9 36.9 6.9z" fill="#00D16C" p-id="3131"></path><path d="M702.5 162.8c-0.8 5.5-4.5 9.9-9.4 11.8-2.3 0.9-5 1.3-7.6 0.9-4.2-0.6-8.3-1-12.4-1.2-3.2-0.1-6.5-0.1-9.7 0-8.1 0.4-16.1 1.6-24 3.7-6.3 1.7-12.6 3.9-18.8 6.7-2.1 0.9-4.2 1.9-6.2 3-8.1 4.1-16.1 9.2-24.1 15.2-4.5 3.4-9 7.2-13.4 11.2-1.5 1.3-3 2.7-4.4 4.2-0.9 0.9-1.8 1.8-2.8 2.7-4 4-7.7 8-11.2 12-4.7 5.4-8.8 10.6-12.4 15.5a123 123 0 0 0-5.1 7.2c-7.5 10.9-11.5 18.5-11.6 18.6-2.2 4-6 6.7-10.2 7.6V236h-1.1c4-5.7 8.8-12 14.4-18.7 2.2-2.6 4.5-5.3 6.9-7.9 3.6-4 7.5-8 11.6-12 0.5-0.5 1-1 1.6-1.5 8.1-7.7 16.4-14.6 24.8-20.6 4.8-3.4 9.6-6.5 14.5-9.3 5-2.9 10.1-5.5 15.2-7.9 7.6-3.5 15.2-6.2 23-8.4 4-1.1 8-2 12-2.8 5.5-1.1 11.1-1.8 16.6-2.2 9.1-0.7 18.2-0.4 27.4 0.7 1.2 0.1 2.5 0.3 3.8 0.5 1.4 0.2 2.8 0.6 4 1.2 4.1 1.9 7.2 5.5 8.3 9.8 0.5 1.8 0.6 3.8 0.3 5.9z" fill="#8E4A1F" p-id="3132"></path><path d="M705.4 155.7c-12 4.8-18.5-1.2-19.4-2.1l-0.1-0.1c-2.8-34.1 33.9-31.6 43.2-26.8 0.1 0 0.1 0 0.2 0.1-14.4 5.4-11.1 23.7-23.9 28.9z" fill="#00AD95" p-id="3133"></path><path d="M705.4 155.7c-12 4.8-18.5-1.2-19.4-2.1 8.2-2.8 7.1-9.6 17.4-17.7 7.6-6 21.7-9.5 25.7-9.2 0.1 0 0.1 0 0.2 0.1-14.4 5.4-11.1 23.7-23.9 28.9z" fill="#00D16C" p-id="3134"></path><path d="M682.3 162.3c-12-4.6-18.5 1.6-19.3 2.5l-0.1 0.1c-2.1 34.1 34.5 30.9 43.7 25.9 0.1 0 0.1 0 0.2-0.1-14.5-5.1-11.6-23.5-24.5-28.4z" fill="#00AD95" p-id="3135"></path><path d="M682.3 162.3c-12-4.6-18.5 1.6-19.3 2.5 8.2 2.6 7.3 9.4 17.7 17.3 7.7 5.9 21.9 9 25.9 8.7 0.1 0 0.1 0 0.2-0.1-14.5-5.1-11.6-23.5-24.5-28.4z" fill="#00D16C" p-id="3136"></path><path d="M651.4 161.9c-10.3 7.8-18.2 3.7-19.2 3.1-0.1 0-0.1-0.1-0.1-0.1-11.7-32.1 24.4-39.4 34.6-37.2h0.2c-12.5 9-4.4 25.8-15.5 34.2z" fill="#00AD95" p-id="3137"></path><path d="M651.4 161.9c-10.3 7.8-18.2 3.7-19.2 3.1 7.2-4.8 4.4-11.1 12.1-21.6 5.7-7.8 18.4-14.8 22.4-15.7h0.2c-12.5 9-4.4 25.8-15.5 34.2z" fill="#00D16C" p-id="3138"></path><path d="M630.9 174.4c-12.8-1.2-17.4 6.4-18 7.5 0 0.1-0.1 0.1-0.1 0.1 6.9 33.5 41.5 20.7 49 13.5 0.1 0 0.1-0.1 0.1-0.1-15.3-1.2-17.2-19.7-31-21z" fill="#00AD95" p-id="3139"></path><path d="M630.9 174.4c-12.8-1.2-17.4 6.4-18 7.5 8.6 0.3 9.6 7.2 21.7 12 9 3.6 23.5 3 27.3 1.6 0.1 0 0.1-0.1 0.1-0.1-15.4-1.2-17.3-19.7-31.1-21z" fill="#00D16C" p-id="3140"></path><path d="M599.7 184.8c-9.7 8.5-17.8 5.1-18.9 4.5-0.1 0-0.1-0.1-0.1-0.1-14-31.1 21.4-41.1 31.7-39.7h0.2c-11.8 10-2.5 26.2-12.9 35.3z" fill="#00AD95" p-id="3141"></path><path d="M599.7 184.8c-9.7 8.5-17.8 5.1-18.9 4.5 6.8-5.3 3.5-11.4 10.5-22.5 5.1-8.2 17.3-16.2 21.2-17.3h0.2c-11.9 10-2.6 26.2-13 35.3z" fill="#00D16C" p-id="3142"></path><path d="M580.2 198.8c-12.9-0.3-16.9 7.7-17.4 8.8 0 0.1-0.1 0.1-0.1 0.1 9.4 32.8 42.9 17.6 49.9 9.8 0.1 0 0.1-0.1 0.1-0.1-15.3 0-18.7-18.3-32.5-18.6z" fill="#00AD95" p-id="3143"></path><path d="M580.2 198.8c-12.9-0.3-16.9 7.7-17.4 8.8 8.6-0.3 10.1 6.4 22.5 10.4 9.2 2.9 23.6 1.2 27.3-0.5 0.1 0 0.1-0.1 0.1-0.1-15.3 0-18.7-18.3-32.5-18.6z" fill="#00D16C" p-id="3144"></path><path d="M555 212c-4.2 12.2-13.1 13.1-14.3 13.2h-0.1c-27.5-20.3-1.5-46.3 8.2-50.2 0.1 0 0.1-0.1 0.2-0.1-5.4 14.5 10.6 24 6 37.1z" fill="#00AD95" p-id="3145"></path><path d="M555 212c-4.2 12.2-13.1 13.1-14.3 13.2 3.3-8-2.5-11.7-1.9-24.7 0.5-9.7 7.1-22.6 10-25.5 0.1 0 0.1-0.1 0.2-0.1-5.4 14.5 10.6 24 6 37.1z" fill="#00D16C" p-id="3146"></path><path d="M544.8 233.8c-11.3 6.1-11 15-10.9 16.2v0.1c24.3 24 46-5.7 48.3-15.9v-0.2c-13.3 7.5-25.2-6.8-37.4-0.2z" fill="#00AD95" p-id="3147"></path><path d="M544.8 233.8c-11.3 6.1-11 15-10.9 16.2 7.4-4.5 11.9 0.7 24.7-2 9.5-2 21.2-10.5 23.6-13.8v-0.2c-13.3 7.5-25.2-6.8-37.4-0.2z" fill="#00D16C" p-id="3148"></path><path d="M591.7 308.5c-0.7 12.9-8.9 16.2-10.1 16.7h-0.1c-32-11.9-14.2-44.1-5.9-50.5 0.1 0 0.1-0.1 0.1-0.1-1.2 15.3 16.8 20 16 33.9z" fill="#00AD95" p-id="3149"></path><path d="M591.7 308.5c-0.7 12.9-8.9 16.2-10.1 16.7 1-8.6-5.6-10.5-8.6-23.2-2.2-9.4 0.6-23.6 2.6-27.2 0.1 0 0.1-0.1 0.1-0.1-1.2 15.2 16.8 19.9 16 33.8z" fill="#00D16C" p-id="3150"></path><path d="M597.6 272.4c-5.3 11.7 0.4 18.5 1.2 19.4l0.1 0.1c33.9 4.3 33.1-32.5 28.7-41.9 0-0.1 0-0.1-0.1-0.2-6 14.2-24.2 10-29.9 22.6z" fill="#00AD95" p-id="3151"></path><path d="M597.6 272.4c-5.3 11.7 0.4 18.5 1.2 19.4 3.1-8.1 9.9-6.7 18.4-16.6 6.3-7.3 10.4-21.2 10.4-25.3 0-0.1 0-0.1-0.1-0.2-6 14.3-24.2 10.1-29.9 22.7z" fill="#00D16C" p-id="3152"></path><path d="M578 365.7c2.7 12.6-4.3 18-5.3 18.7-0.1 0-0.1 0.1-0.1 0.1-34-3.1-25.3-38.8-19-47.1 0-0.1 0.1-0.1 0.1-0.1 2.7 15 21.4 14.8 24.3 28.4z" fill="#00AD95" p-id="3153"></path><path d="M578 365.7c2.7 12.6-4.3 18-5.3 18.7-1.3-8.5-8.2-8.7-14.4-20.1-4.6-8.5-5.6-23-4.7-26.9 0-0.1 0.1-0.1 0.1-0.1 2.7 15 21.4 14.8 24.3 28.4z" fill="#00D16C" p-id="3154"></path><path d="M589.7 336.2c-6.5 11.1-1.6 18.5-0.9 19.5l0.1 0.1c33.2 7.9 36.4-28.8 33-38.7 0-0.1 0-0.1-0.1-0.2-7.4 13.4-25 7.3-32.1 19.3z" fill="#00AD95" p-id="3155"></path><path d="M589.7 336.2c-6.5 11.1-1.6 18.5-0.9 19.5 4-7.7 10.5-5.6 20.1-14.5 7.1-6.6 12.6-20 13-24 0-0.1 0-0.1-0.1-0.2-7.4 13.3-25 7.2-32.1 19.2z" fill="#00D16C" p-id="3156"></path><path d="M586.2 413.2c8.6 9.6 5.3 17.8 4.8 18.9 0 0.1-0.1 0.1-0.1 0.1-31 14.4-41.4-20.9-40.1-31.3v-0.2c10.1 11.7 26.2 2.2 35.4 12.5z" fill="#00AD95" p-id="3157"></path><path d="M586.2 413.2c8.6 9.6 5.3 17.8 4.8 18.9-5.4-6.7-11.5-3.4-22.6-10.2-8.3-5-16.4-17.1-17.6-20.9v-0.2c10.1 11.6 26.2 2.1 35.4 12.4z" fill="#00D16C" p-id="3158"></path><path d="M590.4 392.5c-5.7 11.5-0.2 18.5 0.6 19.5l0.1 0.1c33.7 5.4 34.1-31.4 30-41 0-0.1 0-0.1-0.1-0.2-6.5 13.8-24.5 9.1-30.6 21.6z" fill="#00AD95" p-id="3159"></path><path d="M590.4 392.5c-5.7 11.5-0.2 18.5 0.6 19.5 3.4-7.9 10.1-6.4 19-16 6.6-7.1 11.1-20.9 11.2-24.9 0-0.1 0-0.1-0.1-0.2-6.6 13.8-24.6 9.1-30.7 21.6z" fill="#00D16C" p-id="3160"></path><path d="M776.5 465.7c0 1.6-0.2 3.1-0.6 4.5-1.8 6.1-7.5 10.5-14.2 10.6-2.2 0-4.3 0-6.4 0.1-6.2 0.1-12.2 0.3-18.1 0.6-3.1 0.2-6.2 0.3-9.3 0.6-7.1 0.5-13.9 1.1-20.5 1.9-6.3 0.7-12.5 1.6-18.5 2.5-3.5 0.5-6.9 1.1-10.2 1.7-9.3 1.7-18.1 3.6-26.4 5.8-6.2 1.6-12 3.3-17.6 5-3.3 1-6.5 2.1-9.5 3.2-7.3 2.5-14.1 5.2-20.4 8-7.2 3.1-13.9 6.4-20 9.7-2.9 1.6-5.7 3.2-8.4 4.8-34.1 20.2-47.5 39.8-47.8 40.2-1.3 1.9-2.9 3.5-4.7 4.6v-43.4c13.6-12.3 34.5-27.8 64.9-41.5 2.9-1.3 5.8-2.6 8.8-3.8 5.3-2.2 10.9-4.4 16.8-6.4 9-3.2 18.5-6.1 28.8-8.8 3.5-0.9 7.1-1.8 10.8-2.7 6.3-1.5 12.8-2.8 19.6-4 8.2-1.5 16.8-2.8 25.8-3.9 3.2-0.4 6.4-0.8 9.6-1.1 6.5-0.7 13.2-1.2 20.2-1.7 9.7-0.6 19.8-1 30.3-1.1h2.2c3.5 0 6.6 1.2 9.2 3.1 3.3 2.5 5.5 6.7 5.6 11.5z" fill="#8E4A1F" p-id="3161"></path><path d="M772.9 471c-12.7 2-17.7-5.4-18.4-6.4 0-0.1-0.1-0.1-0.1-0.1 5-33.8 40.2-23.1 48.1-16.4 0.1 0 0.1 0.1 0.1 0.1-15.1 2.1-16 20.7-29.7 22.8z" fill="#008486" p-id="3162"></path><path d="M772.9 471c-12.7 2-17.7-5.4-18.4-6.4 8.6-0.8 9.1-7.7 20.9-13.3 8.7-4.1 23.3-4.3 27.2-3.2 0.1 0 0.1 0.1 0.1 0.1-15.2 2.1-16.1 20.7-29.8 22.8z" fill="#00AD95" p-id="3163"></path><path d="M748.9 472.2c-10.7-7.2-18.3-2.6-19.4-2l-0.1 0.1c-9.8 32.7 26.7 37.9 36.7 35.1h0.2c-12.9-8.2-5.9-25.5-17.4-33.2z" fill="#008486" p-id="3164"></path><path d="M748.9 472.2c-10.7-7.2-18.3-2.6-19.4-2 7.4 4.4 5 10.8 13.4 20.9 6.2 7.4 19.3 13.7 23.3 14.3h0.2c-13-8.2-6-25.5-17.5-33.2z" fill="#00AD95" p-id="3165"></path><path d="M718.9 464.9c-11.8 5.2-18.5-0.5-19.4-1.3l-0.1-0.1c-4.1-33.9 32.7-32.9 42.1-28.5 0.1 0 0.1 0 0.2 0.1-14.2 5.9-10.2 24.1-22.8 29.8z" fill="#008486" p-id="3166"></path><path d="M718.9 464.9c-11.8 5.2-18.5-0.5-19.4-1.3 8.1-3.1 6.8-9.8 16.7-18.3 7.3-6.3 21.3-10.3 25.4-10.2 0.1 0 0.1 0 0.2 0.1-14.3 5.8-10.3 24-22.9 29.7z" fill="#00AD95" p-id="3167"></path><path d="M696.1 472.4c-12.2-4.1-18.4 2.3-19.2 3.2l-0.1 0.1c-0.8 34.2 35.7 29.6 44.7 24.2 0.1 0 0.1-0.1 0.2-0.1-14.7-4.5-12.5-23-25.6-27.4z" fill="#008486" p-id="3168"></path><path d="M696.1 472.4c-12.2-4.1-18.4 2.3-19.2 3.2 8.3 2.3 7.7 9.1 18.4 16.6 7.9 5.5 22.2 8.2 26.2 7.7 0.1 0 0.1-0.1 0.2-0.1-14.7-4.5-12.5-23-25.6-27.4z" fill="#00AD95" p-id="3169"></path><path d="M663.3 475.5c-11.3 6.1-18.5 0.9-19.5 0.1l-0.1-0.1c-6.6-33.5 30.1-35.2 39.9-31.5 0.1 0 0.1 0 0.2 0.1-13.6 7-8.3 24.9-20.5 31.4z" fill="#008486" p-id="3170"></path><path d="M663.3 475.5c-11.3 6.1-18.5 0.9-19.5 0.1 7.8-3.7 6-10.3 15.3-19.5 6.9-6.8 20.5-11.9 24.5-12.1 0.1 0 0.1 0 0.2 0.1-13.6 7-8.3 24.9-20.5 31.4z" fill="#00AD95" p-id="3171"></path><path d="M641.1 484.7c-12.5-3.2-18.2 3.7-18.9 4.6l-0.1 0.1c1.8 34.1 37.8 26.8 46.4 20.8 0.1 0 0.1-0.1 0.1-0.1-14.9-3.4-14-22-27.5-25.4z" fill="#008486" p-id="3172"></path><path d="M641.1 484.7c-12.5-3.2-18.2 3.7-18.9 4.6 8.5 1.6 8.4 8.5 19.6 15.2 8.3 4.9 22.7 6.5 26.7 5.7 0.1 0 0.1-0.1 0.1-0.1-14.9-3.4-14-22-27.5-25.4z" fill="#00AD95" p-id="3173"></path><path d="M612.1 485.1c-6.9 10.9-15.7 9.9-16.9 9.7h-0.1c-22.2-26 9-45.5 19.3-47h0.2c-8.5 12.7 4.9 25.6-2.5 37.3z" fill="#008486" p-id="3174"></path><path d="M612.1 485.1c-6.9 10.9-15.7 9.9-16.9 9.7 5-7 0.2-11.9 3.7-24.5 2.6-9.3 12-20.4 15.5-22.6h0.2c-8.5 12.8 4.9 25.7-2.5 37.4z" fill="#00AD95" p-id="3175"></path><path d="M585.6 504.8c-12.4 3.4-14.1 12.1-14.2 13.3v0.1c18.2 28.9 46.1 4.8 50.6-4.6 0-0.1 0.1-0.1 0.1-0.2-14.7 4.4-23.1-12.2-36.5-8.6z" fill="#008486" p-id="3176"></path><path d="M585.6 504.8c-12.4 3.4-14.1 12.1-14.2 13.3 8.2-2.7 11.5 3.4 24.5 3.7 9.7 0.2 23-5.5 26.1-8.1 0-0.1 0.1-0.1 0.1-0.2-14.7 4.3-23.1-12.3-36.5-8.7z" fill="#00AD95" p-id="3177"></path><path d="M136 446.5c12.4-3.4 14-12.1 14.2-13.4v-0.1c-18.4-28.8-46.1-4.7-50.6 4.8 0 0.1-0.1 0.1-0.1 0.2 14.7-4.4 23.2 12.2 36.5 8.5z" fill="#00D16C" p-id="3178"></path><path d="M136 446.5c12.4-3.4 14-12.1 14.2-13.4-8.2 2.7-11.5-3.3-24.5-3.6-9.7-0.2-23 5.6-26.1 8.2 0 0.1-0.1 0.1-0.1 0.2 14.7-4.3 23.2 12.3 36.5 8.6zM158.4 437.8c6.8-10.9 15.7-9.9 16.9-9.7h0.1c22.3 25.9-8.8 45.5-19.2 47.1h-0.2c8.5-12.8-4.9-25.7 2.4-37.4z" fill="#00AD95" p-id="3179"></path><path d="M158.4 437.8c6.8-10.9 15.7-9.9 16.9-9.7-5 7-0.1 11.9-3.6 24.5-2.6 9.3-12 20.4-15.4 22.6h-0.2c8.4-12.8-5-25.7 2.3-37.4zM182.8 418.8c12.9 0 16.7-8 17.2-9.2v-0.1c-10.1-32.6-43.3-16.6-50.1-8.7l-0.1 0.1c15.4-0.3 19.1 18 33 17.9z" fill="#00D16C" p-id="3180"></path><path d="M182.8 418.8c12.9 0 16.7-8 17.2-9.2-8.6 0.5-10.2-6.2-22.7-9.9-9.3-2.7-23.6-0.7-27.3 1l-0.1 0.1c15.3-0.2 19 18.1 32.9 18zM206.7 416.3c9.5-8.7 17.7-5.4 18.8-4.9 0.1 0 0.1 0.1 0.1 0.1 14.7 30.8-20.5 41.6-30.9 40.4h-0.2c11.6-10.2 2-26.2 12.2-35.6z" fill="#00AD95" p-id="3181"></path><path d="M206.7 416.3c9.5-8.7 17.7-5.4 18.8-4.9-6.7 5.5-3.3 11.5-10 22.7-5 8.3-16.9 16.5-20.8 17.8h-0.2c11.6-10.2 2-26.2 12.2-35.6z" fill="#00D16C" p-id="3182"></path><path d="M237.8 405.9c12.8 0.9 17.3-6.8 17.8-7.8 0-0.1 0.1-0.1 0.1-0.1-7.6-33.3-41.9-19.8-49.3-12.5-0.1 0-0.1 0.1-0.1 0.1 15.3 0.8 17.7 19.2 31.5 20.3z" fill="#00D16C" p-id="3183"></path><path d="M237.8 405.9c12.8 0.9 17.3-6.8 17.8-7.8-8.6-0.2-9.7-7-21.9-11.6-9-3.4-23.5-2.5-27.3-1-0.1 0-0.1 0.1-0.1 0.1 15.3 0.8 17.7 19.2 31.5 20.3z" fill="#00AD95" p-id="3184"></path><path d="M261.9 405.2c10.1-8 18.1-4.1 19.2-3.5 0.1 0 0.1 0.1 0.1 0.1 12.3 31.9-23.6 39.9-33.8 38h-0.2c12.2-9.4 3.8-26 14.7-34.6z" fill="#00AD95" p-id="3185"></path><path d="M261.9 405.2c10.1-8 18.1-4.1 19.2-3.5-7.1 5-4.1 11.2-11.7 21.9-5.6 7.9-18.1 15.2-22.1 16.2h-0.2c12.3-9.4 3.9-26 14.8-34.6z" fill="#00D16C" p-id="3186"></path><path d="M288.5 393.7c10.7 7.1 18.4 2.6 19.4 1.9l0.1-0.1c9.6-32.8-26.8-37.8-36.9-35h-0.2c13 8.2 6.1 25.5 17.6 33.2z" fill="#00D16C" p-id="3187"></path><path d="M288.5 393.7c10.7 7.1 18.4 2.6 19.4 1.9-7.5-4.4-5.1-10.8-13.4-20.8-6.2-7.4-19.3-13.7-23.3-14.3h-0.2c12.9 8.2 6 25.5 17.5 33.2z" fill="#00AD95" p-id="3188"></path><path d="M320.7 400.8c12.7-2 17.8 5.3 18.4 6.3 0 0.1 0.1 0.1 0.1 0.1-4.8 33.8-40.1 23.3-48.1 16.5-0.1 0-0.1-0.1-0.1-0.1 15.2-2 16-20.6 29.7-22.8z" fill="#00AD95" p-id="3189"></path><path d="M320.7 400.8c12.7-2 17.8 5.3 18.4 6.3-8.6 0.9-9.1 7.7-20.9 13.4-8.7 4.2-23.2 4.4-27.1 3.3-0.1 0-0.1-0.1-0.1-0.1 15.2-2.1 16-20.7 29.7-22.9z" fill="#00D16C" p-id="3190"></path></svg>